STARTFONT 2.1
FONT -Monotype-Century Gothic-Bold-R-Normal--19-140-100-100-P-92-iso8859-9
SIZE 14 100 100
FONTBOUNDINGBOX 26 22 -2 -4

STARTPROPERTIES 24
FOUNDRY "Monotype"
FAMILY_NAME "Century Gothic"
WEIGHT_NAME "Bold"
SLANT "R"
SETWIDTH_NAME "Normal"
ADD_STYLE_NAME ""
PIXEL_SIZE 19
POINT_SIZE 140
RESOLUTION_X 100
RESOLUTION_Y 100
SPACING "P"
AVERAGE_WIDTH 92
CHARSET_REGISTRY "iso8859"
CHARSET_ENCODING "9"
FACE_NAME "Century Gothic Bold ISO Latin5"
_DEC_DEVICE_FONTNAMES "PS=centurygothic-b-lat5"
COPYRIGHT "Copyright (c) 1994 Monotype Typography Ltd."
CAP_HEIGHT 16
X_HEIGHT 12
WEIGHT 10
QUAD_WIDTH 13
DEFAULT_CHAR 160
FONT_DESCENT 4
FONT_ASCENT 19
ENDPROPERTIES

CHARS 191

STARTCHAR space
ENCODING 32
SWIDTH 280 0
DWIDTH 5 0
BBX 0 0 0 0
BITMAP
ENDCHAR

STARTCHAR exclam
ENCODING 33
SWIDTH 280 0
DWIDTH 5 0
BBX 4 14 1 0
BITMAP
E0
E0
E0
E0
E0
E0
E0
E0
E0
E0
00
60
F0
60
ENDCHAR

STARTCHAR quotedbl
ENCODING 34
SWIDTH 360 0
DWIDTH 7 0
BBX 6 5 1 9
BITMAP
CC
CC
CC
CC
88
ENDCHAR

STARTCHAR numbersign
ENCODING 35
SWIDTH 600 0
DWIDTH 11 0
BBX 10 14 1 0
BITMAP
1980
1980
1980
1980
7FC0
7FC0
3300
3300
FF80
FF80
6600
6600
6600
6600
ENDCHAR

STARTCHAR dollar
ENCODING 36
SWIDTH 560 0
DWIDTH 11 0
BBX 10 18 1 -3
BITMAP
0C00
3F00
7F80
F380
E000
F000
7C00
3F00
0F80
03C0
01C0
C1C0
E3C0
FF80
3F00
0C00
0C00
0C00
ENDCHAR

STARTCHAR percent
ENCODING 37
SWIDTH 860 0
DWIDTH 16 0
BBX 16 15 0 -1
BITMAP
387C
7FFC
EF98
C630
EE60
7CC0
38C0
019C
033E
0377
0663
0C77
183E
181C
3000
ENDCHAR

STARTCHAR ampersand
ENCODING 38
SWIDTH 680 0
DWIDTH 13 0
BBX 12 13 1 0
BITMAP
1E00
3F00
7300
7300
7700
3E00
3C00
7E20
E760
E3E0
E7C0
FFE0
7E70
ENDCHAR

STARTCHAR quoteright
ENCODING 39
SWIDTH 280 0
DWIDTH 5 0
BBX 3 5 1 9
BITMAP
60
60
60
40
C0
ENDCHAR

STARTCHAR parenleft
ENCODING 40
SWIDTH 380 0
DWIDTH 7 0
BBX 6 19 1 -4
BITMAP
1C
38
38
70
70
60
E0
E0
E0
E0
E0
E0
E0
60
70
70
38
38
1C
ENDCHAR

STARTCHAR parenright
ENCODING 41
SWIDTH 380 0
DWIDTH 7 0
BBX 6 19 1 -4
BITMAP
E0
70
30
38
38
18
1C
1C
1C
1C
1C
1C
1C
18
38
38
30
70
E0
ENDCHAR

STARTCHAR asterisk
ENCODING 42
SWIDTH 440 0
DWIDTH 8 0
BBX 7 7 1 7
BITMAP
30
B6
F6
7C
DE
DA
18
ENDCHAR

STARTCHAR plus
ENCODING 43
SWIDTH 600 0
DWIDTH 11 0
BBX 10 10 1 2
BITMAP
0C00
0C00
0C00
0C00
FFC0
FFC0
0C00
0C00
0C00
0C00
ENDCHAR

STARTCHAR comma
ENCODING 44
SWIDTH 280 0
DWIDTH 5 0
BBX 4 5 0 -3
BITMAP
30
70
60
C0
80
ENDCHAR

STARTCHAR minus
ENCODING 45
SWIDTH 600 0
DWIDTH 11 0
BBX 9 2 1 6
BITMAP
FF80
FF80
ENDCHAR

STARTCHAR period
ENCODING 46
SWIDTH 280 0
DWIDTH 5 0
BBX 4 3 1 0
BITMAP
60
F0
60
ENDCHAR

STARTCHAR slash
ENCODING 47
SWIDTH 460 0
DWIDTH 9 0
BBX 8 17 1 -3
BITMAP
03
03
03
06
06
0C
0C
08
18
18
30
30
60
60
C0
C0
C0
ENDCHAR

STARTCHAR zero
ENCODING 48
SWIDTH 560 0
DWIDTH 11 0
BBX 10 14 1 0
BITMAP
1E00
3F00
7380
6180
E1C0
E1C0
E1C0
E1C0
E1C0
E1C0
6180
7380
3F00
1E00
ENDCHAR

STARTCHAR one
ENCODING 49
SWIDTH 560 0
DWIDTH 11 0
BBX 6 14 2 0
BITMAP
FC
FC
1C
1C
1C
1C
1C
1C
1C
1C
1C
1C
1C
1C
ENDCHAR

STARTCHAR two
ENCODING 50
SWIDTH 560 0
DWIDTH 11 0
BBX 10 14 1 0
BITMAP
1F00
3F80
7BC0
71C0
61C0
01C0
0380
0380
0700
0E00
1C00
3800
7FC0
FFC0
ENDCHAR

STARTCHAR three
ENCODING 51
SWIDTH 560 0
DWIDTH 11 0
BBX 9 14 1 0
BITMAP
3C00
7E00
E700
E700
0700
1E00
1C00
1E00
0700
0380
E380
E780
7F00
3E00
ENDCHAR

STARTCHAR four
ENCODING 52
SWIDTH 560 0
DWIDTH 11 0
BBX 10 14 1 0
BITMAP
0380
0780
0780
0F80
1F80
3B80
3380
7380
E380
FFC0
FFC0
0380
0380
0380
ENDCHAR

STARTCHAR five
ENCODING 53
SWIDTH 560 0
DWIDTH 11 0
BBX 9 14 1 0
BITMAP
3F80
3F80
3000
7000
7000
7E00
7F00
6700
0380
0380
E380
F700
7F00
3E00
ENDCHAR

STARTCHAR six
ENCODING 54
SWIDTH 560 0
DWIDTH 11 0
BBX 9 14 1 0
BITMAP
0C00
0E00
1C00
1C00
3800
3800
7E00
7F00
F700
E380
E380
7780
7F00
3E00
ENDCHAR

STARTCHAR seven
ENCODING 55
SWIDTH 560 0
DWIDTH 11 0
BBX 9 14 1 0
BITMAP
FF80
FF80
0700
0700
0E00
0E00
1C00
1C00
3800
3800
3800
7000
7000
7000
ENDCHAR

STARTCHAR eight
ENCODING 56
SWIDTH 560 0
DWIDTH 11 0
BBX 10 14 1 0
BITMAP
1E00
3F00
7380
6180
7380
3F00
1E00
3F00
7380
E1C0
E1C0
F3C0
7F80
1E00
ENDCHAR

STARTCHAR nine
ENCODING 57
SWIDTH 560 0
DWIDTH 11 0
BBX 9 14 1 0
BITMAP
3E00
7F00
F700
E380
E380
7780
7F00
3F00
0E00
0E00
1C00
1C00
3800
1800
ENDCHAR

STARTCHAR colon
ENCODING 58
SWIDTH 280 0
DWIDTH 5 0
BBX 4 10 1 0
BITMAP
60
F0
60
00
00
00
00
60
F0
60
ENDCHAR

STARTCHAR semicolon
ENCODING 59
SWIDTH 280 0
DWIDTH 5 0
BBX 4 13 0 -3
BITMAP
60
F0
60
00
00
00
00
00
30
70
60
C0
80
ENDCHAR

STARTCHAR less
ENCODING 60
SWIDTH 600 0
DWIDTH 11 0
BBX 9 12 1 1
BITMAP
0080
0180
0780
1E00
7800
E000
E000
7800
1E00
0780
0180
0080
ENDCHAR

STARTCHAR equal
ENCODING 61
SWIDTH 600 0
DWIDTH 11 0
BBX 9 6 1 4
BITMAP
FF80
FF80
0000
0000
FF80
FF80
ENDCHAR

STARTCHAR greater
ENCODING 62
SWIDTH 600 0
DWIDTH 11 0
BBX 9 12 1 1
BITMAP
8000
C000
F000
3C00
0F00
0380
0380
0F00
3C00
F000
C000
8000
ENDCHAR

STARTCHAR question
ENCODING 63
SWIDTH 560 0
DWIDTH 11 0
BBX 9 14 1 0
BITMAP
3E00
7F00
E380
E380
0380
0700
0E00
0C00
1C00
1C00
0000
0C00
1E00
0C00
ENDCHAR

STARTCHAR at
ENCODING 64
SWIDTH 740 0
DWIDTH 14 0
BBX 14 14 0 0
BITMAP
0FE0
3C70
7018
676C
CFEC
DCE4
9864
9864
DCCC
CFF8
6770
7018
3CF0
0FC0
ENDCHAR

STARTCHAR A
ENCODING 65
SWIDTH 740 0
DWIDTH 14 0
BBX 14 14 0 0
BITMAP
0300
0780
0780
0FC0
0CC0
1CE0
1CE0
3870
3FF0
3FF0
7038
7038
E01C
E01C
ENDCHAR

STARTCHAR B
ENCODING 66
SWIDTH 580 0
DWIDTH 11 0
BBX 10 14 1 0
BITMAP
FE00
FF00
E780
E380
E380
E700
FE00
FF80
E3C0
E1C0
E1C0
E3C0
FF80
FE00
ENDCHAR

STARTCHAR C
ENCODING 67
SWIDTH 780 0
DWIDTH 15 0
BBX 13 14 1 0
BITMAP
07C0
1FF0
3C78
7038
7000
E000
E000
E000
E000
7000
7038
3C78
1FF0
07C0
ENDCHAR

STARTCHAR D
ENCODING 68
SWIDTH 700 0
DWIDTH 13 0
BBX 12 14 1 0
BITMAP
FE00
FF80
E3C0
E0E0
E0E0
E070
E070
E070
E070
E0E0
E0E0
E3C0
FF80
FE00
ENDCHAR

STARTCHAR E
ENCODING 69
SWIDTH 520 0
DWIDTH 10 0
BBX 8 14 1 0
BITMAP
FF
FF
E0
E0
E0
E0
FF
FF
E0
E0
E0
E0
FF
FF
ENDCHAR

STARTCHAR F
ENCODING 70
SWIDTH 480 0
DWIDTH 9 0
BBX 8 14 1 0
BITMAP
FF
FF
E0
E0
E0
E0
FF
FF
E0
E0
E0
E0
E0
E0
ENDCHAR

STARTCHAR G
ENCODING 71
SWIDTH 840 0
DWIDTH 16 0
BBX 14 14 1 0
BITMAP
07C0
1FF0
3C78
7038
7000
E000
E000
E1FC
E1FC
701C
7038
3C78
1FF0
07C0
ENDCHAR

STARTCHAR H
ENCODING 72
SWIDTH 680 0
DWIDTH 13 0
BBX 11 14 1 0
BITMAP
E0E0
E0E0
E0E0
E0E0
E0E0
E0E0
FFE0
FFE0
E0E0
E0E0
E0E0
E0E0
E0E0
E0E0
ENDCHAR

STARTCHAR I
ENCODING 73
SWIDTH 280 0
DWIDTH 5 0
BBX 3 14 1 0
BITMAP
E0
E0
E0
E0
E0
E0
E0
E0
E0
E0
E0
E0
E0
E0
ENDCHAR

STARTCHAR J
ENCODING 74
SWIDTH 480 0
DWIDTH 9 0
BBX 8 14 0 0
BITMAP
07
07
07
07
07
07
07
07
07
07
07
E7
7E
3C
ENDCHAR

STARTCHAR K
ENCODING 75
SWIDTH 620 0
DWIDTH 12 0
BBX 11 14 1 0
BITMAP
E0C0
E1C0
E380
E700
EE00
FC00
F800
FC00
EE00
E700
E380
E1C0
E0E0
E060
ENDCHAR

STARTCHAR L
ENCODING 76
SWIDTH 440 0
DWIDTH 8 0
BBX 7 14 1 0
BITMAP
E0
E0
E0
E0
E0
E0
E0
E0
E0
E0
E0
E0
FE
FE
ENDCHAR

STARTCHAR M
ENCODING 77
SWIDTH 900 0
DWIDTH 18 0
BBX 16 14 1 0
BITMAP
381C
381C
381C
7C3E
7C3E
7E7E
766E
77EE
77EE
E3C7
E3C7
E187
E187
E187
ENDCHAR

STARTCHAR N
ENCODING 78
SWIDTH 740 0
DWIDTH 13 0
BBX 11 14 1 0
BITMAP
E0E0
E0E0
F0E0
F8E0
F8E0
FCE0
EEE0
EEE0
E7E0
E3E0
E3E0
E1E0
E0E0
E0E0
ENDCHAR

STARTCHAR O
ENCODING 79
SWIDTH 840 0
DWIDTH 16 0
BBX 14 14 1 0
BITMAP
0780
1FE0
3CF0
7038
7038
E01C
E01C
E01C
E01C
7038
7038
3CF0
1FE0
0780
ENDCHAR

STARTCHAR P
ENCODING 80
SWIDTH 560 0
DWIDTH 11 0
BBX 9 14 1 0
BITMAP
FE00
FF00
E380
E380
E380
E380
FF00
FE00
E000
E000
E000
E000
E000
E000
ENDCHAR

STARTCHAR Q
ENCODING 81
SWIDTH 840 0
DWIDTH 16 0
BBX 14 14 1 0
BITMAP
0780
1FE0
3CF0
7038
7038
E01C
E01C
E01C
E39C
71D8
70F8
3C70
1FF8
079C
ENDCHAR

STARTCHAR R
ENCODING 82
SWIDTH 580 0
DWIDTH 11 0
BBX 10 14 1 0
BITMAP
FE00
FF00
E380
E380
E380
E380
FF00
FE00
E700
E700
E380
E380
E1C0
E1C0
ENDCHAR

STARTCHAR S
ENCODING 83
SWIDTH 520 0
DWIDTH 10 0
BBX 8 14 1 0
BITMAP
1C
7E
77
E3
E0
F0
7C
3E
0F
07
C7
EE
7E
38
ENDCHAR

STARTCHAR T
ENCODING 84
SWIDTH 420 0
DWIDTH 9 0
BBX 7 14 1 0
BITMAP
FE
FE
38
38
38
38
38
38
38
38
38
38
38
38
ENDCHAR

STARTCHAR U
ENCODING 85
SWIDTH 640 0
DWIDTH 12 0
BBX 10 14 1 0
BITMAP
E1C0
E1C0
E1C0
E1C0
E1C0
E1C0
E1C0
E1C0
E1C0
E1C0
E1C0
7380
7F80
3E00
ENDCHAR

STARTCHAR V
ENCODING 86
SWIDTH 700 0
DWIDTH 13 0
BBX 13 14 0 0
BITMAP
E038
E038
E038
7070
7070
38E0
38E0
38E0
1DC0
1DC0
0F80
0F80
0700
0700
ENDCHAR

STARTCHAR W
ENCODING 87
SWIDTH 900 0
DWIDTH 18 0
BBX 16 14 1 0
BITMAP
E187
E187
E187
E3C7
E3C7
77EE
77EE
766E
7E7E
7C3E
7C3E
381C
381C
300C
ENDCHAR

STARTCHAR X
ENCODING 88
SWIDTH 680 0
DWIDTH 13 0
BBX 11 14 1 0
BITMAP
E0E0
E0E0
71C0
71C0
3B80
1F00
0F00
1E00
1F00
3B80
71C0
71C0
E0E0
E0E0
ENDCHAR

STARTCHAR Y
ENCODING 89
SWIDTH 620 0
DWIDTH 11 0
BBX 11 14 0 0
BITMAP
E0E0
E0E0
71C0
71C0
3B80
1F00
1F00
0E00
0E00
0E00
0E00
0E00
0E00
0E00
ENDCHAR

STARTCHAR Z
ENCODING 90
SWIDTH 500 0
DWIDTH 11 0
BBX 9 14 1 0
BITMAP
FF80
FF80
0380
0700
0700
0E00
0E00
1C00
1C00
3800
7000
7000
FF80
FF80
ENDCHAR

STARTCHAR bracketleft
ENCODING 91
SWIDTH 320 0
DWIDTH 6 0
BBX 4 18 1 -4
BITMAP
F0
F0
E0
E0
E0
E0
E0
E0
E0
E0
E0
E0
E0
E0
E0
E0
F0
F0
ENDCHAR

STARTCHAR backslash
ENCODING 92
SWIDTH 640 0
DWIDTH 12 0
BBX 8 17 2 -3
BITMAP
C0
C0
C0
60
60
30
30
10
18
18
0C
0C
06
06
03
03
03
ENDCHAR

STARTCHAR bracketright
ENCODING 93
SWIDTH 320 0
DWIDTH 6 0
BBX 4 18 1 -4
BITMAP
F0
F0
70
70
70
70
70
70
70
70
70
70
70
70
70
70
F0
F0
ENDCHAR

STARTCHAR asciicircum
ENCODING 94
SWIDTH 600 0
DWIDTH 11 0
BBX 9 11 1 3
BITMAP
0C00
0C00
1C00
1E00
3E00
3700
7300
6300
E380
C180
C180
ENDCHAR

STARTCHAR underscore
ENCODING 95
SWIDTH 500 0
DWIDTH 10 0
BBX 10 1 0 -2
BITMAP
FFC0
ENDCHAR

STARTCHAR quoteleft
ENCODING 96
SWIDTH 280 0
DWIDTH 5 0
BBX 3 5 2 9
BITMAP
60
40
C0
C0
C0
ENDCHAR

STARTCHAR a
ENCODING 97
SWIDTH 660 0
DWIDTH 13 0
BBX 11 10 1 0
BITMAP
1EE0
7FE0
71E0
E0E0
E0E0
E0E0
E0E0
71E0
7FE0
1EE0
ENDCHAR

STARTCHAR b
ENCODING 98
SWIDTH 660 0
DWIDTH 13 0
BBX 11 14 1 0
BITMAP
E000
E000
E000
E000
EF00
FFC0
F1C0
E0E0
E0E0
E0E0
E0E0
F1C0
FFC0
EF00
ENDCHAR

STARTCHAR c
ENCODING 99
SWIDTH 640 0
DWIDTH 12 0
BBX 10 10 1 0
BITMAP
1F00
7F80
71C0
E0C0
E000
E000
E0C0
71C0
7F80
1F00
ENDCHAR

STARTCHAR d
ENCODING 100
SWIDTH 660 0
DWIDTH 13 0
BBX 11 14 1 0
BITMAP
00E0
00E0
00E0
00E0
1EE0
7FE0
71E0
E0E0
E0E0
E0E0
E0E0
71E0
7FE0
1EE0
ENDCHAR

STARTCHAR e
ENCODING 101
SWIDTH 640 0
DWIDTH 12 0
BBX 11 10 1 0
BITMAP
1F00
7F80
71C0
E0E0
FFE0
FFE0
E000
71C0
7FC0
1F00
ENDCHAR

STARTCHAR f
ENCODING 102
SWIDTH 280 0
DWIDTH 5 0
BBX 6 14 0 0
BITMAP
3C
7C
70
70
F8
F8
70
70
70
70
70
70
70
70
ENDCHAR

STARTCHAR g
ENCODING 103
SWIDTH 660 0
DWIDTH 13 0
BBX 11 14 1 -4
BITMAP
1EE0
7FE0
71E0
E0E0
E0E0
E0E0
E0E0
71E0
7FE0
1EE0
00C0
E1C0
7F80
3E00
ENDCHAR

STARTCHAR h
ENCODING 104
SWIDTH 600 0
DWIDTH 11 0
BBX 9 14 1 0
BITMAP
E000
E000
E000
E000
EE00
FF00
F380
E380
E380
E380
E380
E380
E380
E380
ENDCHAR

STARTCHAR i
ENCODING 105
SWIDTH 240 0
DWIDTH 5 0
BBX 3 14 1 0
BITMAP
E0
E0
E0
00
E0
E0
E0
E0
E0
E0
E0
E0
E0
E0
ENDCHAR

STARTCHAR j
ENCODING 106
SWIDTH 260 0
DWIDTH 5 0
BBX 5 18 -1 -4
BITMAP
38
38
38
00
38
38
38
38
38
38
38
38
38
38
38
38
F8
F0
ENDCHAR

STARTCHAR k
ENCODING 107
SWIDTH 580 0
DWIDTH 11 0
BBX 10 14 1 0
BITMAP
E000
E000
E000
E000
E380
E700
EE00
FC00
F800
FC00
EE00
E700
E380
E1C0
ENDCHAR

STARTCHAR l
ENCODING 108
SWIDTH 240 0
DWIDTH 5 0
BBX 3 14 1 0
BITMAP
E0
E0
E0
E0
E0
E0
E0
E0
E0
E0
E0
E0
E0
E0
ENDCHAR

STARTCHAR m
ENCODING 109
SWIDTH 940 0
DWIDTH 17 0
BBX 15 10 1 0
BITMAP
EE38
FFFC
F3CE
E38E
E38E
E38E
E38E
E38E
E38E
E38E
ENDCHAR

STARTCHAR n
ENCODING 110
SWIDTH 600 0
DWIDTH 11 0
BBX 9 10 1 0
BITMAP
EE00
FF00
F380
E380
E380
E380
E380
E380
E380
E380
ENDCHAR

STARTCHAR o
ENCODING 111
SWIDTH 640 0
DWIDTH 13 0
BBX 11 10 1 0
BITMAP
1F00
7FC0
71C0
E0E0
E0E0
E0E0
E0E0
71C0
7FC0
1F00
ENDCHAR

STARTCHAR p
ENCODING 112
SWIDTH 660 0
DWIDTH 13 0
BBX 11 14 1 -4
BITMAP
EF00
FFC0
F1C0
E0E0
E0E0
E0E0
E0E0
F1C0
FFC0
EF00
E000
E000
E000
E000
ENDCHAR

STARTCHAR q
ENCODING 113
SWIDTH 660 0
DWIDTH 13 0
BBX 11 14 1 -4
BITMAP
1EE0
7FE0
71E0
E0E0
E0E0
E0E0
E0E0
71E0
7FE0
1EE0
00E0
00E0
00E0
00E0
ENDCHAR

STARTCHAR r
ENCODING 114
SWIDTH 320 0
DWIDTH 7 0
BBX 6 10 1 0
BITMAP
DC
FC
F0
E0
E0
E0
E0
E0
E0
E0
ENDCHAR

STARTCHAR s
ENCODING 115
SWIDTH 440 0
DWIDTH 8 0
BBX 6 10 1 0
BITMAP
78
FC
CC
E0
F8
7C
1C
CC
FC
78
ENDCHAR

STARTCHAR t
ENCODING 116
SWIDTH 300 0
DWIDTH 5 0
BBX 5 14 0 0
BITMAP
70
70
70
70
F8
F8
70
70
70
70
70
70
70
70
ENDCHAR

STARTCHAR u
ENCODING 117
SWIDTH 600 0
DWIDTH 11 0
BBX 9 10 1 0
BITMAP
E380
E380
E380
E380
E380
E380
E380
F780
7F00
3E00
ENDCHAR

STARTCHAR v
ENCODING 118
SWIDTH 560 0
DWIDTH 11 0
BBX 11 10 0 0
BITMAP
E0E0
E0E0
71C0
71C0
3B80
3B80
1F00
1F00
0E00
0400
ENDCHAR

STARTCHAR w
ENCODING 119
SWIDTH 800 0
DWIDTH 15 0
BBX 15 10 0 0
BITMAP
E10E
E38E
638C
77DC
77DC
3EF8
3EF8
1C70
1C70
0820
ENDCHAR

STARTCHAR x
ENCODING 120
SWIDTH 560 0
DWIDTH 11 0
BBX 11 10 0 0
BITMAP
E0E0
71C0
3B80
1F00
0F00
1E00
1F00
3B80
71C0
E0E0
ENDCHAR

STARTCHAR y
ENCODING 121
SWIDTH 580 0
DWIDTH 11 0
BBX 11 14 0 -4
BITMAP
E0E0
E0E0
71C0
71C0
3B80
3B80
1F00
1F00
0E00
0E00
1C00
1C00
3800
3000
ENDCHAR

STARTCHAR z
ENCODING 122
SWIDTH 460 0
DWIDTH 9 0
BBX 8 10 1 0
BITMAP
FF
FF
0E
1C
1C
38
70
70
FF
FF
ENDCHAR

STARTCHAR braceleft
ENCODING 123
SWIDTH 340 0
DWIDTH 6 0
BBX 7 18 0 -4
BITMAP
0E
1E
38
38
38
38
38
70
E0
E0
70
38
38
38
38
38
1E
0E
ENDCHAR

STARTCHAR bar
ENCODING 124
SWIDTH 600 0
DWIDTH 11 0
BBX 1 18 5 -4
BITMAP
80
80
80
80
80
80
80
80
80
80
80
80
80
80
80
80
80
80
ENDCHAR

STARTCHAR braceright
ENCODING 125
SWIDTH 340 0
DWIDTH 6 0
BBX 7 18 0 -4
BITMAP
E0
F0
38
38
38
38
38
1C
0E
0E
1C
38
38
38
38
38
F0
E0
ENDCHAR

STARTCHAR asciitilde
ENCODING 126
SWIDTH 600 0
DWIDTH 11 0
BBX 10 5 1 4
BITMAP
7000
FC40
FFC0
8FC0
0380
ENDCHAR

STARTCHAR space
ENCODING 160
SWIDTH 280 0
DWIDTH 6 0
BBX 0 0 0 0
BITMAP
ENDCHAR

STARTCHAR exclamdown
ENCODING 161
SWIDTH 280 0
DWIDTH 5 0
BBX 4 14 1 -4
BITMAP
60
F0
60
00
E0
E0
E0
E0
E0
E0
E0
E0
E0
E0
ENDCHAR

STARTCHAR cent
ENCODING 162
SWIDTH 560 0
DWIDTH 11 0
BBX 10 14 1 -2
BITMAP
0180
0180
1F00
7F80
73C0
E6C0
E400
EC00
E8C0
79C0
7F80
3F00
6000
6000
ENDCHAR

STARTCHAR sterling
ENCODING 163
SWIDTH 560 0
DWIDTH 11 0
BBX 10 14 1 0
BITMAP
1F00
3F80
7380
7380
7000
3000
FE00
FE00
3800
3800
39C0
71C0
FF80
FF00
ENDCHAR

STARTCHAR currency
ENCODING 164
SWIDTH 600 0
DWIDTH 11 0
BBX 10 10 1 2
BITMAP
5E80
FFC0
6180
C0C0
C0C0
C0C0
C0C0
6180
FFC0
5E80
ENDCHAR

STARTCHAR yen
ENCODING 165
SWIDTH 560 0
DWIDTH 11 0
BBX 11 14 0 0
BITMAP
E0E0
E0E0
71C0
71C0
3B80
1F00
7FC0
7FC0
0E00
7FC0
7FC0
0E00
0E00
0E00
ENDCHAR

STARTCHAR brokenbar
ENCODING 166
SWIDTH 600 0
DWIDTH 11 0
BBX 1 18 5 -4
BITMAP
80
80
80
80
80
80
00
00
00
00
00
00
80
80
80
80
80
80
ENDCHAR

STARTCHAR section
ENCODING 167
SWIDTH 560 0
DWIDTH 11 0
BBX 8 18 2 -4
BITMAP
3C
7E
77
63
70
3C
7E
EF
C7
E3
F7
7E
3C
0E
C6
EE
7E
3C
ENDCHAR

STARTCHAR dieresis
ENCODING 168
SWIDTH 500 0
DWIDTH 10 0
BBX 8 3 1 12
BITMAP
42
E7
42
ENDCHAR

STARTCHAR copyright
ENCODING 169
SWIDTH 740 0
DWIDTH 14 0
BBX 13 14 1 0
BITMAP
0F80
3FE0
7070
67B0
CFD8
DED8
DC18
DC18
DED8
CFD8
67B0
7070
3FE0
0F80
ENDCHAR

STARTCHAR ordfeminine
ENCODING 170
SWIDTH 360 0
DWIDTH 7 0
BBX 6 7 1 7
BITMAP
74
FC
CC
CC
CC
FC
74
ENDCHAR

STARTCHAR guillemotleft
ENCODING 171
SWIDTH 460 0
DWIDTH 9 0
BBX 8 10 1 0
BITMAP
33
33
77
66
EE
EE
66
77
33
33
ENDCHAR

STARTCHAR logicalnot
ENCODING 172
SWIDTH 600 0
DWIDTH 11 0
BBX 9 6 1 4
BITMAP
FF80
FF80
0180
0180
0180
0180
ENDCHAR

STARTCHAR hyphen
ENCODING 173
SWIDTH 420 0
DWIDTH 8 0
BBX 5 3 2 4
BITMAP
F8
F8
F8
ENDCHAR

STARTCHAR registered
ENCODING 174
SWIDTH 740 0
DWIDTH 14 0
BBX 13 14 1 0
BITMAP
0F80
3FE0
7070
6FB0
CFD8
CCD8
CCD8
CF98
CFD8
CCD8
6CF0
7070
3FE0
0F80
ENDCHAR

STARTCHAR macron
ENCODING 175
SWIDTH 420 0
DWIDTH 8 0
BBX 6 2 1 12
BITMAP
FC
FC
ENDCHAR

STARTCHAR degree
ENCODING 176
SWIDTH 400 0
DWIDTH 8 0
BBX 6 6 1 8
BITMAP
78
CC
84
84
CC
78
ENDCHAR

STARTCHAR plusminus
ENCODING 177
SWIDTH 600 0
DWIDTH 11 0
BBX 10 14 1 0
BITMAP
0C00
0C00
0C00
0C00
FFC0
FFC0
0C00
0C00
0C00
0C00
0000
0000
FFC0
FFC0
ENDCHAR

STARTCHAR twosuperior
ENCODING 178
SWIDTH 336 0
DWIDTH 6 0
BBX 6 7 0 7
BITMAP
78
EC
0C
1C
38
70
FC
ENDCHAR

STARTCHAR threesuperior
ENCODING 179
SWIDTH 336 0
DWIDTH 6 0
BBX 6 7 0 7
BITMAP
78
CC
1C
38
0C
CC
78
ENDCHAR

STARTCHAR acute
ENCODING 180
SWIDTH 420 0
DWIDTH 8 0
BBX 5 3 2 12
BITMAP
78
70
E0
ENDCHAR

STARTCHAR mu
ENCODING 181
SWIDTH 576 0
DWIDTH 11 0
BBX 10 13 1 -3
BITMAP
E1C0
E1C0
E1C0
E1C0
E1C0
E1C0
F3C0
FFC0
FFC0
EDC0
E000
E000
E000
ENDCHAR

STARTCHAR paragraph
ENCODING 182
SWIDTH 600 0
DWIDTH 11 0
BBX 9 17 1 -3
BITMAP
3F80
7900
F900
F900
F900
F900
7900
1900
0900
0900
0900
0900
0900
0900
0900
0900
0900
ENDCHAR

STARTCHAR periodcentered
ENCODING 183
SWIDTH 280 0
DWIDTH 5 0
BBX 3 3 1 5
BITMAP
E0
E0
E0
ENDCHAR

STARTCHAR cedilla
ENCODING 184
SWIDTH 340 0
DWIDTH 6 0
BBX 5 5 1 -4
BITMAP
30
30
18
D8
70
ENDCHAR

STARTCHAR onesuperior
ENCODING 185
SWIDTH 336 0
DWIDTH 6 0
BBX 4 7 1 7
BITMAP
F0
30
30
30
30
30
30
ENDCHAR

STARTCHAR ordmasculine
ENCODING 186
SWIDTH 360 0
DWIDTH 7 0
BBX 6 7 1 7
BITMAP
78
FC
CC
CC
CC
FC
78
ENDCHAR

STARTCHAR guillemotright
ENCODING 187
SWIDTH 460 0
DWIDTH 9 0
BBX 8 10 1 0
BITMAP
CC
CC
EE
66
77
77
66
EE
CC
CC
ENDCHAR

STARTCHAR onequarter
ENCODING 188
SWIDTH 840 0
DWIDTH 16 0
BBX 16 14 0 0
BITMAP
F060
3060
3040
30C0
30C0
3180
3180
0306
030E
061E
0636
0466
0C7F
0C06
ENDCHAR

STARTCHAR onehalf
ENCODING 189
SWIDTH 840 0
DWIDTH 16 0
BBX 15 14 1 0
BITMAP
F060
3060
3040
30C0
30C0
3180
3180
033C
0376
0606
060E
041C
0C38
0C7E
ENDCHAR

STARTCHAR threequarters
ENCODING 190
SWIDTH 840 0
DWIDTH 16 0
BBX 16 14 0 0
BITMAP
7830
CC30
1C20
3860
0C60
CCC0
78C0
0186
018E
031E
0336
0266
067F
0606
ENDCHAR

STARTCHAR questiondown
ENCODING 191
SWIDTH 560 0
DWIDTH 11 0
BBX 9 14 1 -4
BITMAP
1800
3C00
1800
0000
1C00
1C00
1800
3800
7000
E000
E380
E380
7F00
3E00
ENDCHAR

STARTCHAR Agrave
ENCODING 192
SWIDTH 740 0
DWIDTH 14 0
BBX 14 18 0 0
BITMAP
0F00
0700
0380
0000
0300
0780
0780
0FC0
0CC0
1CE0
1CE0
3870
3FF0
3FF0
7038
7038
E01C
E01C
ENDCHAR

STARTCHAR Aacute
ENCODING 193
SWIDTH 740 0
DWIDTH 14 0
BBX 14 18 0 0
BITMAP
03C0
0380
0700
0000
0300
0780
0780
0FC0
0CC0
1CE0
1CE0
3870
3FF0
3FF0
7038
7038
E01C
E01C
ENDCHAR

STARTCHAR Acircumflex
ENCODING 194
SWIDTH 740 0
DWIDTH 14 0
BBX 14 18 0 0
BITMAP
0780
0FC0
1CE0
0000
0300
0780
0780
0FC0
0CC0
1CE0
1CE0
3870
3FF0
3FF0
7038
7038
E01C
E01C
ENDCHAR

STARTCHAR Atilde
ENCODING 195
SWIDTH 740 0
DWIDTH 14 0
BBX 14 18 0 0
BITMAP
0720
0FE0
09C0
0000
0300
0780
0780
0FC0
0CC0
1CE0
1CE0
3870
3FF0
3FF0
7038
7038
E01C
E01C
ENDCHAR

STARTCHAR Adieresis
ENCODING 196
SWIDTH 740 0
DWIDTH 14 0
BBX 14 17 0 0
BITMAP
0CC0
0CC0
0000
0300
0780
0780
0FC0
0CC0
1CE0
1CE0
3870
3FF0
3FF0
7038
7038
E01C
E01C
ENDCHAR

STARTCHAR Aring
ENCODING 197
SWIDTH 740 0
DWIDTH 14 0
BBX 14 18 0 0
BITMAP
0780
0CC0
0CC0
0480
0300
0780
0780
0FC0
0CC0
1CE0
1CE0
3870
3FF0
3FF0
7038
7038
E01C
E01C
ENDCHAR

STARTCHAR AE
ENCODING 198
SWIDTH 900 0
DWIDTH 17 0
BBX 17 14 0 0
BITMAP
01FF80
03FF80
03F000
077000
067000
0E7000
0C7F80
1C7F80
1FF000
3FF000
307000
707000
607F80
E07F80
ENDCHAR

STARTCHAR Ccedilla
ENCODING 199
SWIDTH 780 0
DWIDTH 15 0
BBX 13 18 1 -4
BITMAP
07C0
1FF0
3C78
7038
7000
E000
E000
E000
E000
7000
7038
3C78
1FF0
07C0
0180
00C0
00C0
0380
ENDCHAR

STARTCHAR Egrave
ENCODING 200
SWIDTH 520 0
DWIDTH 10 0
BBX 8 18 1 0
BITMAP
78
38
1C
00
FF
FF
E0
E0
E0
E0
FF
FF
E0
E0
E0
E0
FF
FF
ENDCHAR

STARTCHAR Eacute
ENCODING 201
SWIDTH 520 0
DWIDTH 10 0
BBX 8 18 1 0
BITMAP
0F
0E
1C
00
FF
FF
E0
E0
E0
E0
FF
FF
E0
E0
E0
E0
FF
FF
ENDCHAR

STARTCHAR Ecircumflex
ENCODING 202
SWIDTH 520 0
DWIDTH 10 0
BBX 8 18 1 0
BITMAP
1C
3E
77
00
FF
FF
E0
E0
E0
E0
FF
FF
E0
E0
E0
E0
FF
FF
ENDCHAR

STARTCHAR Edieresis
ENCODING 203
SWIDTH 520 0
DWIDTH 10 0
BBX 8 17 1 0
BITMAP
66
66
00
FF
FF
E0
E0
E0
E0
FF
FF
E0
E0
E0
E0
FF
FF
ENDCHAR

STARTCHAR Igrave
ENCODING 204
SWIDTH 280 0
DWIDTH 5 0
BBX 5 18 -1 0
BITMAP
F0
70
38
00
38
38
38
38
38
38
38
38
38
38
38
38
38
38
ENDCHAR

STARTCHAR Iacute
ENCODING 205
SWIDTH 280 0
DWIDTH 5 0
BBX 5 18 1 0
BITMAP
78
70
E0
00
E0
E0
E0
E0
E0
E0
E0
E0
E0
E0
E0
E0
E0
E0
ENDCHAR

STARTCHAR Icircumflex
ENCODING 206
SWIDTH 280 0
DWIDTH 5 0
BBX 7 18 -1 0
BITMAP
38
7C
EE
00
38
38
38
38
38
38
38
38
38
38
38
38
38
38
ENDCHAR

STARTCHAR Idieresis
ENCODING 207
SWIDTH 280 0
DWIDTH 5 0
BBX 5 17 0 0
BITMAP
D8
D8
00
70
70
70
70
70
70
70
70
70
70
70
70
70
70
ENDCHAR

STARTCHAR Gbreve
ENCODING 208
SWIDTH 840 0
DWIDTH 16 0
BBX 14 18 1 0
BITMAP
1860
1FE0
0FC0
0000
07C0
1FF0
3C78
7038
7000
E000
E000
E1FC
E1FC
701C
7038
3C78
1FF0
07C0
ENDCHAR

STARTCHAR Ntilde
ENCODING 209
SWIDTH 740 0
DWIDTH 13 0
BBX 11 18 1 0
BITMAP
1C80
3F80
2700
0000
E0E0
E0E0
F0E0
F8E0
F8E0
FCE0
EEE0
EEE0
E7E0
E3E0
E3E0
E1E0
E0E0
E0E0
ENDCHAR

STARTCHAR Ograve
ENCODING 210
SWIDTH 840 0
DWIDTH 16 0
BBX 14 18 1 0
BITMAP
0F00
0700
0380
0000
0780
1FE0
3CF0
7038
7038
E01C
E01C
E01C
E01C
7038
7038
3CF0
1FE0
0780
ENDCHAR

STARTCHAR Oacute
ENCODING 211
SWIDTH 840 0
DWIDTH 16 0
BBX 14 18 1 0
BITMAP
01E0
01C0
0380
0000
0780
1FE0
3CF0
7038
7038
E01C
E01C
E01C
E01C
7038
7038
3CF0
1FE0
0780
ENDCHAR

STARTCHAR Ocircumflex
ENCODING 212
SWIDTH 840 0
DWIDTH 16 0
BBX 14 18 1 0
BITMAP
0780
0FC0
1CE0
0000
0780
1FE0
3CF0
7038
7038
E01C
E01C
E01C
E01C
7038
7038
3CF0
1FE0
0780
ENDCHAR

STARTCHAR Otilde
ENCODING 213
SWIDTH 840 0
DWIDTH 16 0
BBX 14 18 1 0
BITMAP
0720
0FE0
09C0
0000
0780
1FE0
3CF0
7038
7038
E01C
E01C
E01C
E01C
7038
7038
3CF0
1FE0
0780
ENDCHAR

STARTCHAR Odieresis
ENCODING 214
SWIDTH 840 0
DWIDTH 16 0
BBX 14 17 1 0
BITMAP
0CC0
0CC0
0000
0780
1FE0
3CF0
7038
7038
E01C
E01C
E01C
E01C
7038
7038
3CF0
1FE0
0780
ENDCHAR

STARTCHAR multiply
ENCODING 215
SWIDTH 600 0
DWIDTH 11 0
BBX 8 8 2 3
BITMAP
82
C7
6E
3C
38
7C
E6
43
ENDCHAR

STARTCHAR Oslash
ENCODING 216
SWIDTH 840 0
DWIDTH 16 0
BBX 14 14 1 0
BITMAP
078C
1FF8
3CF0
7078
70F8
E19C
E31C
E61C
EC1C
7838
7038
7CF0
7FE0
C780
ENDCHAR

STARTCHAR Ugrave
ENCODING 217
SWIDTH 640 0
DWIDTH 12 0
BBX 10 18 1 0
BITMAP
3C00
1C00
0E00
0000
E1C0
E1C0
E1C0
E1C0
E1C0
E1C0
E1C0
E1C0
E1C0
E1C0
E1C0
7380
7F80
3E00
ENDCHAR

STARTCHAR Uacute
ENCODING 218
SWIDTH 640 0
DWIDTH 12 0
BBX 10 18 1 0
BITMAP
0F00
0E00
1C00
0000
E1C0
E1C0
E1C0
E1C0
E1C0
E1C0
E1C0
E1C0
E1C0
E1C0
E1C0
7380
7F80
3E00
ENDCHAR

STARTCHAR Ucircumflex
ENCODING 219
SWIDTH 640 0
DWIDTH 12 0
BBX 10 18 1 0
BITMAP
1E00
3F00
7380
0000
E1C0
E1C0
E1C0
E1C0
E1C0
E1C0
E1C0
E1C0
E1C0
E1C0
E1C0
7380
7F80
3E00
ENDCHAR

STARTCHAR Udieresis
ENCODING 220
SWIDTH 640 0
DWIDTH 12 0
BBX 10 17 1 0
BITMAP
3300
3300
0000
E1C0
E1C0
E1C0
E1C0
E1C0
E1C0
E1C0
E1C0
E1C0
E1C0
E1C0
7380
7F80
3E00
ENDCHAR

STARTCHAR Idotaccent
ENCODING 221
SWIDTH 280 0
DWIDTH 5 0
BBX 3 18 1 0
BITMAP
40
E0
40
00
E0
E0
E0
E0
E0
E0
E0
E0
E0
E0
E0
E0
E0
E0
ENDCHAR

STARTCHAR Scedilla
ENCODING 222
SWIDTH 520 0
DWIDTH 10 0
BBX 8 18 1 -4
BITMAP
1C
7E
77
E3
E0
F0
7C
3E
0F
07
C7
EE
7E
38
18
0C
0C
38
ENDCHAR

STARTCHAR germandbls
ENCODING 223
SWIDTH 600 0
DWIDTH 11 0
BBX 10 14 1 0
BITMAP
3E00
7F00
7380
E380
E380
EF00
EE00
E780
E1C0
E1C0
E1C0
EBC0
EF80
EF00
ENDCHAR

STARTCHAR agrave
ENCODING 224
SWIDTH 660 0
DWIDTH 13 0
BBX 11 15 1 0
BITMAP
3C00
1C00
0E00
0000
0000
1EE0
7FE0
71E0
E0E0
E0E0
E0E0
E0E0
71E0
7FE0
1EE0
ENDCHAR

STARTCHAR aacute
ENCODING 225
SWIDTH 660 0
DWIDTH 13 0
BBX 11 15 1 0
BITMAP
0780
0700
0E00
0000
0000
1EE0
7FE0
71E0
E0E0
E0E0
E0E0
E0E0
71E0
7FE0
1EE0
ENDCHAR

STARTCHAR acircumflex
ENCODING 226
SWIDTH 660 0
DWIDTH 13 0
BBX 11 15 1 0
BITMAP
0700
0F80
1DC0
0000
0000
1EE0
7FE0
71E0
E0E0
E0E0
E0E0
E0E0
71E0
7FE0
1EE0
ENDCHAR

STARTCHAR atilde
ENCODING 227
SWIDTH 660 0
DWIDTH 13 0
BBX 11 15 1 0
BITMAP
0E40
1FC0
1380
0000
0000
1EE0
7FE0
71E0
E0E0
E0E0
E0E0
E0E0
71E0
7FE0
1EE0
ENDCHAR

STARTCHAR adieresis
ENCODING 228
SWIDTH 660 0
DWIDTH 13 0
BBX 11 14 1 0
BITMAP
1980
1980
0000
0000
1EE0
7FE0
71E0
E0E0
E0E0
E0E0
E0E0
71E0
7FE0
1EE0
ENDCHAR

STARTCHAR aring
ENCODING 229
SWIDTH 660 0
DWIDTH 13 0
BBX 11 15 1 0
BITMAP
0F00
1980
1980
0F00
0000
1EE0
7FE0
71E0
E0E0
E0E0
E0E0
E0E0
71E0
7FE0
1EE0
ENDCHAR

STARTCHAR ae
ENCODING 230
SWIDTH 1080 0
DWIDTH 21 0
BBX 20 10 1 0
BITMAP
1F6F80
7FFFC0
71F8E0
E0F070
E0FFF0
E0FFF0
E0F000
71F8E0
7FFFE0
1F6F80
ENDCHAR

STARTCHAR ccedilla
ENCODING 231
SWIDTH 640 0
DWIDTH 12 0
BBX 10 14 1 -4
BITMAP
1F00
7F80
71C0
E0C0
E000
E000
E0C0
71C0
7F80
1F00
0C00
0600
0600
1C00
ENDCHAR

STARTCHAR egrave
ENCODING 232
SWIDTH 640 0
DWIDTH 12 0
BBX 11 15 1 0
BITMAP
3C00
1C00
0E00
0000
0000
1F00
7F80
71C0
E0E0
FFE0
FFE0
E000
71C0
7FC0
1F00
ENDCHAR

STARTCHAR eacute
ENCODING 233
SWIDTH 640 0
DWIDTH 12 0
BBX 11 15 1 0
BITMAP
0780
0700
0E00
0000
0000
1F00
7F80
71C0
E0E0
FFE0
FFE0
E000
71C0
7FC0
1F00
ENDCHAR

STARTCHAR ecircumflex
ENCODING 234
SWIDTH 640 0
DWIDTH 12 0
BBX 11 15 1 0
BITMAP
0E00
1F00
3B80
0000
0000
1F00
7F80
71C0
E0E0
FFE0
FFE0
E000
71C0
7FC0
1F00
ENDCHAR

STARTCHAR edieresis
ENCODING 235
SWIDTH 640 0
DWIDTH 12 0
BBX 11 14 1 0
BITMAP
3180
3180
0000
0000
1F00
7F80
71C0
E0E0
FFE0
FFE0
E000
71C0
7FC0
1F00
ENDCHAR

STARTCHAR igrave
ENCODING 236
SWIDTH 240 0
DWIDTH 5 0
BBX 5 15 -1 0
BITMAP
F0
70
38
00
00
38
38
38
38
38
38
38
38
38
38
ENDCHAR

STARTCHAR iacute
ENCODING 237
SWIDTH 240 0
DWIDTH 5 0
BBX 5 15 1 0
BITMAP
78
70
E0
00
00
E0
E0
E0
E0
E0
E0
E0
E0
E0
E0
ENDCHAR

STARTCHAR icircumflex
ENCODING 238
SWIDTH 240 0
DWIDTH 5 0
BBX 7 15 -1 0
BITMAP
38
7C
EE
00
00
38
38
38
38
38
38
38
38
38
38
ENDCHAR

STARTCHAR idieresis
ENCODING 239
SWIDTH 240 0
DWIDTH 5 0
BBX 7 15 -1 0
BITMAP
44
EE
44
00
00
38
38
38
38
38
38
38
38
38
38
ENDCHAR

STARTCHAR gbreve
ENCODING 240
SWIDTH 660 0
DWIDTH 13 0
BBX 11 19 1 -4
BITMAP
3180
3F00
1E00
0000
0000
1EE0
7FE0
71E0
E0E0
E0E0
E0E0
E0E0
71E0
7FE0
1EE0
00C0
E1C0
7F80
3E00
ENDCHAR

STARTCHAR ntilde
ENCODING 241
SWIDTH 600 0
DWIDTH 11 0
BBX 9 15 1 0
BITMAP
3900
7F00
4E00
0000
0000
EE00
FF00
FF80
F380
E380
E380
E380
E380
E380
E380
ENDCHAR

STARTCHAR ograve
ENCODING 242
SWIDTH 640 0
DWIDTH 12 0
BBX 11 15 1 0
BITMAP
3C00
1C00
0E00
0000
0000
1F00
7FC0
71C0
E0E0
E0E0
E0E0
60E0
71C0
7FC0
1F00
ENDCHAR

STARTCHAR oacute
ENCODING 243
SWIDTH 640 0
DWIDTH 12 0
BBX 11 15 1 0
BITMAP
0780
0700
0E00
0000
0000
1F00
7FC0
71C0
E0E0
E0E0
E0E0
E0E0
71C0
7FC0
1F00
ENDCHAR

STARTCHAR ocircumflex
ENCODING 244
SWIDTH 640 0
DWIDTH 12 0
BBX 11 15 1 0
BITMAP
0E00
1F00
3B80
0000
0000
1F00
7FC0
71C0
E0E0
E0E0
E0E0
E0E0
71C0
7FC0
1F00
ENDCHAR

STARTCHAR otilde
ENCODING 245
SWIDTH 640 0
DWIDTH 12 0
BBX 11 15 1 0
BITMAP
1C80
3F80
2700
0000
0000
1F00
7FC0
71C0
E0E0
E0E0
E0E0
E0E0
71C0
7FC0
1F00
ENDCHAR

STARTCHAR odieresis
ENCODING 246
SWIDTH 640 0
DWIDTH 12 0
BBX 11 14 1 0
BITMAP
3180
3180
0000
0000
1F00
7FC0
71C0
E0E0
E0E0
E0E0
E0E0
71C0
7FC0
1F00
ENDCHAR

STARTCHAR divide
ENCODING 247
SWIDTH 600 0
DWIDTH 11 0
BBX 9 11 1 1
BITMAP
1C00
1C00
1C00
0000
0000
FF80
FF80
0000
1C00
1C00
1C00
ENDCHAR

STARTCHAR oslash
ENCODING 248
SWIDTH 660 0
DWIDTH 13 0
BBX 11 10 1 0
BITMAP
1F60
7FC0
71C0
E3E0
E6E0
ECE0
F8E0
71C0
7FC0
DF00
ENDCHAR

STARTCHAR ugrave
ENCODING 249
SWIDTH 600 0
DWIDTH 11 0
BBX 9 15 1 0
BITMAP
7800
3800
1C00
0000
0000
E380
E380
E380
E380
E380
E380
E380
F780
7F00
3E00
ENDCHAR

STARTCHAR uacute
ENCODING 250
SWIDTH 600 0
DWIDTH 11 0
BBX 9 15 1 0
BITMAP
1E00
1C00
3800
0000
0000
E380
E380
E380
E380
E380
E380
E380
F780
7F00
3E00
ENDCHAR

STARTCHAR ucircumflex
ENCODING 251
SWIDTH 600 0
DWIDTH 11 0
BBX 9 15 1 0
BITMAP
1C00
3E00
7700
0000
0000
E380
E380
E380
E380
E380
E380
E380
F780
7F00
3E00
ENDCHAR

STARTCHAR udieresis
ENCODING 252
SWIDTH 600 0
DWIDTH 11 0
BBX 9 14 1 0
BITMAP
6300
6300
0000
0000
E380
E380
E380
E380
E380
E380
E380
F780
7F00
3E00
ENDCHAR

STARTCHAR dotlessi
ENCODING 253
SWIDTH 240 0
DWIDTH 5 0
BBX 3 10 1 0
BITMAP
E0
E0
E0
E0
E0
E0
E0
E0
E0
E0
ENDCHAR

STARTCHAR scedilla
ENCODING 254
SWIDTH 440 0
DWIDTH 8 0
BBX 6 14 1 -4
BITMAP
78
FC
CC
E0
F8
7C
1C
CC
FC
78
30
18
18
70
ENDCHAR

STARTCHAR ydieresis
ENCODING 255
SWIDTH 580 0
DWIDTH 11 0
BBX 11 18 0 -4
BITMAP
3180
3180
0000
0000
E0E0
E0E0
71C0
71C0
3B80
3B80
1F00
1F00
0E00
0E00
1C00
1C00
3800
3000
ENDCHAR
ENDFONT
